<svg xmlns="http://www.w3.org/2000/svg" width="24" height="24"><path d="M9.273 1.648c-5.297 1.426-8.75 6.703-7.848 12 .801 4.625 4.324 8.125 8.926 8.902 7.023 1.176 13.375-5.176 12.199-12.199C21.5 4.051 15.324.023 9.273 1.648zm6.352 1.375c2.074.777 4.551 3.25 5.375 5.352.801 2.074.824 5.148.023 7.176-.648 1.676-2.473 3.801-4 4.648L16 20.773V16.55c0-5.352-.199-5.977-3.176-10.102-2.773-3.848-2.699-3.699-2.301-4 .551-.375 3.453-.051 5.102.574zm-3.75 3.727c1.352 1.852 2.449 3.523 2.477 3.699.023.227-.875.652-2.602 1.199l-2.676.852C9.023 12.5 9 10.352 9 7.699c0-2.801.102-4.699.227-4.574.125.148 1.324 1.773 2.648 3.625zM8 7.574c0 3.977.051 4.449.602 5.852.324.848.922 1.973 1.324 2.5 2 2.574 3.824 5.148 3.824 5.324 0 .426-1.824.574-3.352.301-2.172-.402-3.875-1.352-5.449-3-1.898-1.977-2.551-3.699-2.574-6.676 0-2 .102-2.426.801-3.926.426-.898 1.25-2.125 1.801-2.676 1-1 2.422-2.023 2.848-2.023.102 0 .176 1.949.176 4.324zm7 8.727c0 2.648-.102 4.699-.199 4.574-.926-1.074-5.125-7.051-5.152-7.324-.023-.25.75-.652 2.352-1.199 1.301-.453 2.523-.828 2.699-.828.227-.023.301 1.102.301 4.777zm0 0" fill="#fff"/></svg>