<svg xmlns="http://www.w3.org/2000/svg" fill="none" height="24" width="24"><path fill="#fff" d="M11.997 15.875c-.098 0-.188-.017-.272-.05s-.167-.092-.25-.175L7.7 11.875c-.15-.155-.221-.335-.213-.541s.084-.384.228-.534a.767.767 0 011.084 0l2.45 2.475V4.75a.72.72 0 01.217-.534.73.73 0 01.539-.216.72.72 0 01.533.215.73.73 0 01.213.534v8.525l2.475-2.475c.147-.15.321-.221.522-.213s.381.088.537.238a.75.75 0 01.215.537.733.733 0 01-.225.537l-3.75 3.75a.75.75 0 01-.253.175.75.75 0 01-.275.05zM5.5 20c-.4 0-.75-.15-1.05-.45S4 18.9 4 18.5v-2.825a.72.72 0 01.217-.534.73.73 0 01.537-.216c.214 0 .391.072.533.216a.73.73 0 01.213.534V18.5h13v-2.825a.72.72 0 01.217-.534.73.73 0 01.538-.216c.214 0 .391.072.533.216a.73.73 0 01.212.534V18.5c0 .4-.15.75-.45 1.05s-.65.45-1.05.45h-13z"/></svg>