<svg fill="none" height="24" width="24" xmlns="http://www.w3.org/2000/svg"><g fill="#fff"><path d="M20.33 6.098c.292-1.867-.003-3.138-1.012-4.288C18.204.543 16.197 0 13.627 0h-7.46c-.525 0-.972.382-1.054.9L2.008 20.598a.64.64 0 00.632.74h4.606l-.318 2.016A.56.56 0 007.48 24h3.881c.46 0 .85-.334.922-.788l.039-.197.73-4.637.048-.256a.933.933 0 01.922-.788h.58c3.76 0 6.706-1.528 7.566-5.946.36-1.846.174-3.388-.777-4.47a3.702 3.702 0 00-1.063-.82z" opacity=".68"/><path d="M20.33 6.098c.292-1.867-.003-3.138-1.012-4.288C18.204.543 16.197 0 13.627 0h-7.46c-.525 0-.972.382-1.054.9L2.008 20.598a.64.64 0 00.632.74h4.606l1.156-7.335-.036.23c.082-.519.526-.9 1.05-.9h2.19c4.298 0 7.663-1.747 8.647-6.798.029-.15.054-.294.076-.436z" opacity=".7"/><path d="M9.645 6.122a.934.934 0 01.922-.788h5.847c.693 0 1.339.045 1.93.14.168.028.332.059.491.094a7.253 7.253 0 01.686.188c.29.096.56.21.808.341.293-1.867-.002-3.137-1.011-4.288C18.205.543 16.198 0 13.628 0h-7.46c-.525 0-.972.382-1.054.9L2.008 20.598a.64.64 0 00.632.74h4.606l1.156-7.335z"/></g></svg>