<svg fill="none" height="24" width="24" xmlns="http://www.w3.org/2000/svg"><path d="M20.317 4.366a19.791 19.791 0 00-4.885-1.515.074.074 0 00-.079.037c-.21.376-.444.865-.608 1.25a18.272 18.272 0 00-5.487 0 12.644 12.644 0 00-.617-1.25.077.077 0 00-.079-.037 19.736 19.736 0 00-4.885 1.515.07.07 0 00-.032.028C.533 9.042-.32 13.576.099 18.054a.082.082 0 00.031.057 19.9 19.9 0 005.993 3.029.078.078 0 00.084-.028 14.22 14.22 0 001.226-1.994.077.077 0 00-.041-.106 13.109 13.109 0 01-1.872-.892.077.077 0 01-.008-.128 9.74 9.74 0 00.372-.291.074.074 0 01.078-.01c3.927 1.793 8.18 1.793 12.061 0a.074.074 0 01.078.01c.12.098.246.197.373.291.044.033.04.1-.006.128-.598.35-1.22.645-1.874.892a.077.077 0 00-.04.106c.36.698.772 1.363 1.225 1.993a.076.076 0 00.084.029 19.834 19.834 0 006.002-3.03.077.077 0 00.032-.055c.5-5.177-.839-9.674-3.549-13.66a.06.06 0 00-.031-.029zM8.02 15.328c-1.182 0-2.157-1.086-2.157-2.42S6.82 10.49 8.02 10.49c1.21 0 2.176 1.095 2.157 2.419 0 1.333-.956 2.419-2.157 2.419zm7.975 0c-1.183 0-2.157-1.086-2.157-2.42s.955-2.418 2.157-2.418c1.21 0 2.176 1.095 2.157 2.419 0 1.333-.946 2.419-2.157 2.419z" fill="#fff"/></svg>