<svg fill="none" height="24" width="24" xmlns="http://www.w3.org/2000/svg"><path d="M2.4 21.2c-.66 0-1.225-.235-1.695-.705S0 19.46 0 18.8V4.4c0-.66.235-1.225.705-1.695S1.74 2 2.4 2h19.2c.66 0 1.225.235 1.695.705S24 3.74 24 4.4v14.4c0 .66-.235 1.225-.705 1.695s-1.035.705-1.695.705zm9.6-8.61a1.248 1.248 0 00.63-.18l8.49-5.31a.992.992 0 00.48-.87c0-.4-.17-.7-.51-.9s-.69-.19-1.05.03L12 10.4 3.96 5.36c-.36-.22-.71-.225-1.05-.015s-.51.505-.51.885c0 .2.04.375.12.525s.2.265.36.345l8.49 5.31a1.248 1.248 0 00.63.18z" fill="#fff"/></svg>