<svg xmlns="http://www.w3.org/2000/svg" width="24" height="24" fill="#fff"><path d="M10.031 4.641a.59.59 0 00.086.043 8.69 8.69 0 011.129.738l.285.203v.141l-.535-.133c-.738-.246-1.711-.039-2.406.27-.891.445-1.48 1.066-1.836 1.996-.145.52-.105 1.168.152 1.641.184.289.184.289.453.492 1.336-.086 2.559-1.574 3.375-2.496l.152-.176c1.492-1.707 3.41-3.203 5.754-3.371.535-.027 1.059.086 1.582.184l.605.098c1.25.172 2.355.895 3.117 1.883.461.617.77 1.262.977 2.004l.031.105c.273 1.016.246 2.117-.031 3.129l-.027.102c-.449 1.66-1.555 3.051-2.672 4.324l-.141.164-.078.094a1.58 1.58 0 01-.066.082c-.062.063-.062.063-.156.063l-.035.082c-.07.125-.148.207-.25.309-.039.035-.074.074-.113.113l-.125.121a1.613 1.613 0 01-.117.117l-.633.59-.406.371-.727.633-.391.328c-.316.266-.656.504-.996.738l-.262.18c-1.062.727-2.422 1.145-3.707.918l-.582-.141-.273-.027c-1.266-.109-2.395-.707-3.324-1.562l-.277-.242a3.665 3.665 0 01-.398-.41l-.277-.312c-.465-.523-.465-.523-.465-.68.176.027.258.102.383.227.426.383.98.516 1.547.527l.414-.051.168-.023c1.082-.164 2.063-.676 2.926-1.336l.082-.062 1.023-.832.297-.246c.57-.477 1.086-1.012 1.609-1.543l.504-.508.199-.203.121-.125.109-.105c.086-.078.086-.078.18-.078v-.094l.16-.137c.203-.172.359-.363.523-.57l.359-.395c.578-.617 1.219-1.465 1.207-2.352-.035-.41-.164-.691-.414-1.02-.098-.09-.098-.09-.227-.066-.937.227-1.512.957-2.078 1.68l-.648.801-.066.082c-.102.121-.16.191-.316.242v.094c-.07.07-.07.07-.164.148a7.24 7.24 0 00-.562.531l-.195.195-.301.305-.293.297-.09.09-.086.086a.646.646 0 01-.074.074c-.062.055-.062.055-.156.055l-.047.141-.289.234-.086.07-.187.141-.258.199c-1.465 1.121-2.949 1.711-4.793 1.48-.148-.023-.289-.066-.434-.109l-.266-.027c-1.406-.117-2.715-.844-3.625-1.914-.625-.766-1.09-1.641-1.312-2.605l-.023-.094c-.094-.395-.09-.793-.09-1.191v-.113c0-.582.047-1.102.254-1.648l.055-.156c.316-.812.805-1.469 1.398-2.094l.105-.113c1.895-2 4.828-1.797 7.066-.59zm0 0"/><path d="M18.234 4.219c1.328.039 2.484.602 3.398 1.555a5.91 5.91 0 011.289 2.383l.031.105c.273 1.016.246 2.117-.031 3.129l-.027.102c-.449 1.66-1.555 3.051-2.672 4.324l-.141.164-.078.094-.066.082c-.062.063-.062.063-.156.063l-.035.082c-.07.125-.148.207-.25.309-.039.035-.074.074-.113.113l-.125.121a1.613 1.613 0 01-.117.117l-.633.59-.406.371-.727.633-.391.328c-.316.266-.656.504-.996.738l-.262.18c-1.145.785-2.531 1.137-3.906.883a.93.93 0 01-.383-.152l.098-.012c1.445-.184 2.543-.652 3.699-1.535l.09-.07a20.622 20.622 0 001.617-1.371l.379-.34.762-.73.254-.254.789-.844.07-.086a20.69 20.69 0 001.617-2.211l.09-.141c.348-.566.563-1.16.723-1.797.016-.047.027-.094.039-.141.32-1.34.156-2.715-.383-3.969l-.055-.129c-.594-1.277-1.703-2.152-2.992-2.637v-.047zm-.656 3.937l.094.141-.168.07c-.879.367-1.406.918-1.988 1.664l-.648.801-.066.082c-.102.121-.16.191-.316.242v.094c-.07.07-.07.07-.164.148a7.24 7.24 0 00-.562.531l-.195.195-.301.305-.293.297-.09.09a.89.89 0 01-.086.086.646.646 0 01-.074.074c-.062.055-.062.055-.156.055l-.047.141-.289.234-.086.07-.187.141-.258.199c-1.465 1.121-2.949 1.711-4.793 1.48a2.82 2.82 0 01-.434-.109v-.047l.109-.012c.953-.109.953-.109 1.859-.41l.082-.039c.754-.344 1.492-.77 2.133-1.301l.195-.156c.34-.27.645-.566.949-.879l.813-.777a10.12 10.12 0 001.434-1.543l.406-.5.082-.102.234-.281.082-.098a3.17 3.17 0 011.324-.934l.156-.062c.414-.078.867-.078 1.25.109zm-7.312-2.765a.79.79 0 01.141.141l-.156.016c-1.031.094-1.934.332-2.703 1.063l-.102.094c-.527.535-.762 1.234-.758 1.973a1.81 1.81 0 00.438 1.168l.234.188v.094c-.824.035-.824.035-1.172-.187l-.098-.059a1.656 1.656 0 01-.672-.934c-.125-.762-.008-1.461.441-2.102l.078-.113c.543-.742 1.418-1.234 2.316-1.406.621-.09 1.406-.129 2.012.066zm0 0"/></svg>