<svg xmlns="http://www.w3.org/2000/svg" height="16" width="16"><!--! Font Awesome Free 6.5.2 by @fontawesome - https://fontawesome.com License - https://fontawesome.com/license/free (Icons: CC BY 4.0, Fonts: SIL OFL 1.1, Code: MIT License) Copyright 2024 Fonticons, Inc.--><path d="M.919 1.425a.757.757 0 00-.759.758v1.518c0 .42.338.758.759.758h1.517c.42 0 .759-.338.759-.758V2.183a.757.757 0 00-.759-.758H.92zm4.805.505a1.01 1.01 0 100 2.024h9.104a1.01 1.01 0 100-2.024H5.724zm0 5.058a1.01 1.01 0 100 2.024h9.104a1.01 1.01 0 100-2.024H5.724zm0 5.058a1.01 1.01 0 100 2.024h9.104a1.01 1.01 0 100-2.024H5.724zM.16 7.241V8.76c0 .42.338.758.759.758h1.517c.42 0 .759-.338.759-.758V7.24a.757.757 0 00-.759-.758H.92a.757.757 0 00-.759.758zm.759 4.3a.757.757 0 00-.759.758v1.518c0 .42.338.758.759.758h1.517c.42 0 .759-.338.759-.758v-1.518a.757.757 0 00-.759-.758H.92z" fill="#fff"/></svg>