<svg width="56" height="58" xmlns="http://www.w3.org/2000/svg"><path d="M0 38v-2h19v2h33v9h-1v1h-1v1h-3v2h-1v1h-1v1h-1v1h-6v2h-1v1h-1v1H20v-1h-1v-1h-1v-2h-7v-1h-1v-1H9v-1H8v-2H6v-1H5v-1H4v-7H2v-1H1v-1H0z" fill="#012647"/><path d="M9 4h37v41H9V4zM5 35h4v1H5v-1z" fill="#278EED"/><path d="M10 8h27v28H10V8zM37 18h5v14h-5V18zM28 36h5v5h-5v-5z" fill="#3DA2FF"/><path d="M33 36h4v5h-4v-5zM37 32h5v4h-5v-4z" fill="#2E95F4"/><path d="M18 8h10v14H18V8zM18 22h5v5h-5v-5z" fill="#57AAFF"/><path d="M33 8h4v10h-4V8zM33 22h4v10h-4V22zM28 27h5v9h-5v-9zM19 32h9v6h-9v-6z" fill="#4BA8FF"/><path d="M9 41h5v4H9v-4zM19 48h4v2h-4v-2zM46 32h2v4h-2v-4zM46 18h3v9h-3v-9zM42 36h4v9h-4v-9zM37 41h5v4h-5v-4z" fill="#0D74D3"/><path d="M9 45h10v5H9v-5zM19 50h18v5H19v-5zM37 45h9v5h-9v-5zM46 36h5v9h-5v-9z" fill="#014E96"/><path d="M19 0h18v4H19V0zM0 18h5v18H0V18zM5 36h4v9H5v-9z" fill="#0157A9"/><path d="M42 18h4v4h-4v-4z" fill="#3198F7"/><path d="M51 38v-2h5v2h-1v1h-1v1h-2v-2h-1z" fill="#132E2F"/><g><path d="M19 38h9v3h-9v-3zM23 14h1v2h-1v-2zM24 8h3v2h-3V8zM24 18v-2h1v1h1v1h-2zM14 13V8h8v2h-1v1h1v2h-8zM14 22v-9H9v9H5v13h4v1h5v-2h-2v-1h-2v-3h1v-1h3v1h1v1h1v-4h2v-5h-4z" fill="#6EC310"/><path d="M19 45v-4h15v4H19zM5 22v-4h4v4H5zM9 13V8h5v5H9zM19 8V4h9v2h-1v2h-3V7h-2v1h-3z" fill="#57B10F"/><path d="M9 37v-1h5v1h2v2h1v1h2v1h-3v-1h-1v-1h-3v-2H9z" fill="#58AE01"/><path d="M39 11V8h7v9h-1v-4h-3v-2h-3zM49 18h2v18h-3v-4h-2v-5h3v-9zM37 50v-5H19v3h4v2h14z" fill="#448001"/><path d="M9 8V4h10v4H9v10H5V8h4zM37 8V4h9v4h5v10h5v18h-5V18h-5V8h-9zM26 51v-1h8v1h-1v3h-1v1h-3v-2h-2v-2h-1zM51 38v-2h-2v1h1v1h1z" fill="#2A5401"/></g><g><path d="M14 22v-9h9v9h-9z" fill="#fff"/></g></svg>